<svg xmlns="http://www.w3.org/2000/svg" width="969" height="556" viewBox="0 0 969 556" fill="none">
<path d="M421.446 271.428C422.73 288.87 425.279 305.929 429.093 322.604C436.828 356.444 455.641 405.159 496.865 408.325C507.318 409.126 517.837 406.753 527.447 402.7C546.333 394.738 563.307 380.875 577.831 366.108C595.837 347.791 611.735 327.793 624.805 306.069C628.793 299.442 632.862 292.482 637.01 285.19C646.465 268.583 656.492 252.657 667.091 237.413C670.158 233.008 673.737 229.355 677.827 226.454C692.511 216.054 706.483 224.671 714.806 237.959C717.409 242.107 719.514 246.241 721.123 250.36C724.947 260.146 728.785 269.362 732.638 278.007C745.587 307.049 762.854 333.35 784.439 356.91C792.876 366.118 802.019 374.487 811.866 382.017C823.817 391.158 836.868 399.173 851.019 406.062C883.304 421.772 917.342 431.351 953.131 434.801C953.228 434.81 953.284 434.767 953.298 434.67V434.662C953.303 434.628 953.291 434.607 953.262 434.597C924.756 428.532 897.804 417.859 872.405 402.576C837.498 381.573 808.825 353.722 786.387 319.023C771.907 296.628 761.197 273.92 754.257 250.899C751.72 242.486 749.735 234.066 747.402 225.427C738.773 193.457 713.89 167.608 678.598 175.766C670.042 177.745 661.493 182.308 654.616 187.65C646.111 194.258 638.595 202.904 632.067 213.587C626.455 222.766 620.967 231.764 615.602 240.579C596.44 272.076 575.134 300.757 549.146 327.509C546.156 330.585 543.287 333.241 540.539 335.478C531.656 342.711 519.974 345.579 508.649 342.406C493.848 338.258 483.002 325.209 479.295 310.508C478.544 307.53 477.907 304.631 477.383 301.812C472.018 273.095 470.368 243.944 472.433 214.358C472.472 213.82 472.678 213.315 473.051 212.845C495.847 183.735 517.524 150.899 534.484 117.779C541.53 104.015 547.159 90.6314 551.37 77.6289C552.466 74.2473 553.357 70.8827 554.045 67.535C560.217 37.399 536.366 10.5523 505.421 18.2228C492.322 21.4758 481.33 30.7328 473.073 41.7C471.153 44.2471 468.469 48.3249 465.018 53.9334C442.023 91.2815 427.426 132.135 421.228 176.494C419.313 190.185 418.114 202.877 417.629 214.569C417.615 214.865 417.54 215.144 417.404 215.406C417.259 215.688 417.094 215.959 416.91 216.221C407.305 229.932 396.798 242.918 385.39 255.178C346.678 296.786 303.145 331.701 254.789 359.923C237.169 370.208 219.659 378.963 202.261 386.187C190.931 390.893 178.803 395.607 165.878 400.327C141.395 409.279 116.893 415.891 92.3711 420.166C67.2483 424.547 42.2709 428.826 17.3445 433.884C14.713 434.417 14.7396 434.716 17.4244 434.779C24.0686 434.944 31.4179 434.881 39.4723 434.59C79.5747 433.158 118.739 428.154 156.966 419.576C178.222 414.807 197.868 409.198 215.906 402.751C247.702 391.378 278.735 376.561 309.004 358.3C349.547 333.843 385.846 305.955 417.898 274.638C418.984 273.58 420.043 272.469 421.075 271.305C421.102 271.273 421.138 271.25 421.179 271.238C421.219 271.227 421.262 271.228 421.302 271.241C421.342 271.255 421.377 271.28 421.402 271.313C421.428 271.346 421.443 271.386 421.446 271.428Z" stroke="#DD9095" stroke-width="2"/>
<path d="M258.235 475.729C271.785 475.749 285.127 475.749 298.26 475.729C301.059 475.722 304.657 474.194 305.304 471.188C306.002 467.942 305.915 464.406 302.942 462.462C301.434 461.482 299.741 460.992 297.86 460.992C259.44 460.983 219.95 460.985 179.392 461C175.75 461 172.108 463.052 171.861 467.033C171.694 469.616 171.767 472.353 173.955 473.983C175.52 475.147 177.301 475.732 179.298 475.737C191.825 475.746 205.111 475.746 219.155 475.737C219.427 475.737 219.562 475.872 219.562 476.144C219.572 494.061 219.572 511.53 219.562 528.549C219.562 533.243 224.731 538.658 229.347 538.614C235.114 538.551 241.257 538.553 247.775 538.621C252.696 538.672 257.806 533.462 257.821 528.527C257.865 511.275 257.848 493.831 257.77 476.195C257.77 475.885 257.925 475.729 258.235 475.729Z" stroke="#808080" stroke-width="2"/>
<path d="M354.328 475.737C377.541 475.741 401.758 475.739 426.978 475.729C430.714 475.729 434.094 473.801 434.501 469.9C435.141 463.809 431.87 460.956 426.389 460.963C394.137 460.988 361.963 460.99 329.867 460.971C325.054 460.971 319.915 466.545 319.915 471.217C319.925 490.444 319.937 509.669 319.951 528.891C319.951 533.607 325.505 538.781 330.078 538.745C361.689 538.502 393.502 538.473 425.516 538.658C427.566 538.672 429.216 538.456 430.467 538.01C433.612 536.894 434.959 534.197 434.509 529.917C434.109 526.126 430.968 524.052 427.436 524.045C403.757 524.015 379.516 523.998 354.713 523.994C354.614 523.994 354.516 523.974 354.424 523.936C354.332 523.898 354.249 523.842 354.179 523.772C354.108 523.702 354.053 523.618 354.015 523.526C353.977 523.435 353.957 523.336 353.957 523.237L353.965 505.079C353.965 504.827 354.093 504.701 354.35 504.701C375.591 504.696 396.805 504.694 417.993 504.694C421.169 504.694 424.615 502.561 424.84 499.083C424.923 497.846 424.908 496.611 424.797 495.379C424.499 491.973 420.639 490.124 417.636 490.124C397.51 490.144 376.446 490.146 354.444 490.131C354.381 490.131 354.319 490.119 354.261 490.095C354.202 490.071 354.15 490.035 354.105 489.991C354.06 489.946 354.025 489.893 354.001 489.835C353.977 489.777 353.965 489.714 353.965 489.651L353.935 476.13C353.935 475.868 354.066 475.737 354.328 475.737Z" stroke="#808080" stroke-width="2"/>
<path d="M492.178 471.817C492.173 468.937 491.026 466.177 488.988 464.145C486.951 462.112 484.19 460.973 481.314 460.978L464.739 461.007C461.863 461.012 459.106 462.161 457.076 464.201C455.045 466.24 453.908 469.004 453.913 471.884L454.01 527.804C454.015 530.684 455.163 533.443 457.2 535.476C459.238 537.509 461.998 538.648 464.875 538.643L481.449 538.614C484.325 538.609 487.082 537.46 489.112 535.42C491.143 533.381 492.281 530.617 492.276 527.737L492.178 471.817Z" stroke="#808080" stroke-width="2"/>
<path d="M510.597 472.149V527.472C510.597 530.456 511.781 533.318 513.888 535.428C515.996 537.538 518.854 538.723 521.835 538.723H610.361C620.722 538.723 630.658 534.628 637.984 527.339C645.31 520.049 649.426 510.163 649.426 499.854V499.767C649.426 489.458 645.31 479.572 637.984 472.282C630.658 464.993 620.722 460.898 610.361 460.898H521.835C518.854 460.898 515.996 462.083 513.888 464.193C511.781 466.303 510.597 469.165 510.597 472.149Z" stroke="#808080" stroke-width="2"/>
<path d="M762.079 520.275C765.937 525.476 769.797 530.553 773.659 535.507C774.841 537.02 776.235 538.01 777.839 538.476C784.897 540.535 792.886 537.006 796.383 530.594C798.295 527.087 797.946 523.433 795.845 520.013C793.286 515.836 790.594 511.937 787.769 508.318C777.567 495.243 767.134 481.964 756.467 468.481C754.381 465.846 751.088 462.914 747.758 462.069C746.503 461.749 745.083 461.599 743.499 461.618C734.984 461.71 725.798 461.72 715.941 461.647C710.91 461.604 706.738 464.915 703.735 468.75C693.733 481.539 683.716 494.301 673.684 507.037C670.173 511.498 666.953 516.098 664.139 520.886C662.017 524.488 662.591 528.884 665.012 532.13C668.511 536.821 673.328 539.123 679.463 539.036C682.24 538.992 684.944 537.894 686.667 535.674C690.365 530.914 694.273 525.777 698.392 520.26C698.501 520.116 698.642 519.998 698.805 519.917C698.968 519.836 699.148 519.794 699.33 519.794H761.127C761.312 519.794 761.494 519.838 761.66 519.921C761.825 520.005 761.969 520.126 762.079 520.275Z" stroke="#808080" stroke-width="2"/>
<path d="M549.03 476.384V523.368C549.03 523.551 549.103 523.727 549.232 523.857C549.362 523.986 549.537 524.059 549.72 524.059H591.475C597.951 524.059 604.162 521.511 608.741 516.976C613.32 512.441 615.893 506.29 615.893 499.876C615.893 493.462 613.32 487.311 608.741 482.776C604.162 478.241 597.951 475.693 591.475 475.693H549.72C549.537 475.693 549.362 475.766 549.232 475.895C549.103 476.025 549.03 476.201 549.03 476.384Z" stroke="#808080" stroke-width="2"/>
<path d="M708.897 504.388C708.861 504.433 708.839 504.487 708.833 504.544C708.827 504.601 708.837 504.659 708.862 504.711C708.887 504.762 708.926 504.806 708.974 504.836C709.023 504.867 709.079 504.883 709.136 504.883H751.328C751.385 504.883 751.441 504.867 751.49 504.836C751.538 504.806 751.577 504.762 751.602 504.711C751.627 504.659 751.637 504.601 751.631 504.544C751.625 504.487 751.603 504.433 751.567 504.388L730.472 476.479C730.443 476.443 730.407 476.413 730.365 476.393C730.324 476.373 730.278 476.362 730.232 476.362C730.186 476.362 730.14 476.373 730.099 476.393C730.057 476.413 730.021 476.443 729.992 476.479L708.897 504.388Z" stroke="#808080" stroke-width="2"/>
<path d="M257.77 476.195C257.848 493.831 257.865 511.275 257.821 528.527C257.806 533.462 252.696 538.672 247.775 538.621C241.257 538.553 235.114 538.551 229.347 538.614C224.731 538.658 219.562 533.243 219.562 528.549C219.572 511.53 219.572 494.061 219.562 476.144C219.562 475.872 219.427 475.737 219.155 475.737C205.111 475.746 191.825 475.746 179.298 475.737C177.301 475.732 175.52 475.147 173.955 473.983C171.767 472.353 171.694 469.616 171.861 467.033C172.108 463.052 175.75 461 179.392 461C219.95 460.985 259.44 460.983 297.86 460.992C299.741 460.992 301.434 461.482 302.942 462.462C305.915 464.406 306.002 467.942 305.304 471.188C304.657 474.194 301.059 475.722 298.26 475.729C285.127 475.749 271.785 475.749 258.235 475.729C257.925 475.729 257.77 475.885 257.77 476.195Z" fill="black"/>
<path d="M353.935 476.13L353.965 489.651C353.965 489.714 353.977 489.777 354.001 489.835C354.025 489.893 354.06 489.946 354.105 489.991C354.15 490.035 354.202 490.071 354.261 490.095C354.319 490.119 354.381 490.131 354.444 490.131C376.446 490.146 397.51 490.144 417.636 490.124C420.639 490.124 424.499 491.973 424.797 495.379C424.908 496.611 424.923 497.846 424.84 499.083C424.615 502.561 421.169 504.694 417.993 504.694C396.805 504.694 375.591 504.696 354.35 504.701C354.093 504.701 353.965 504.827 353.965 505.079L353.957 523.237C353.957 523.336 353.977 523.435 354.015 523.526C354.053 523.618 354.108 523.702 354.179 523.772C354.249 523.842 354.332 523.898 354.424 523.936C354.516 523.974 354.614 523.994 354.713 523.994C379.516 523.998 403.757 524.015 427.436 524.045C430.968 524.052 434.109 526.126 434.509 529.917C434.959 534.197 433.612 536.894 430.467 538.01C429.216 538.456 427.566 538.672 425.516 538.658C393.502 538.473 361.689 538.502 330.078 538.745C325.505 538.781 319.951 533.607 319.951 528.891C319.937 509.669 319.925 490.444 319.915 471.217C319.915 466.545 325.054 460.971 329.867 460.971C361.963 460.99 394.137 460.988 426.389 460.963C431.87 460.956 435.141 463.809 434.501 469.9C434.094 473.801 430.714 475.729 426.978 475.729C401.758 475.739 377.541 475.741 354.328 475.737C354.066 475.737 353.935 475.868 353.935 476.13Z" fill="black"/>
<path d="M481.313 460.978L464.739 461.007C458.749 461.017 453.902 465.887 453.912 471.884L454.01 527.804C454.02 533.801 458.885 538.654 464.875 538.643L481.449 538.614C487.439 538.604 492.286 533.734 492.276 527.737L492.178 471.817C492.168 465.82 487.303 460.968 481.313 460.978Z" fill="black"/>
<path d="M421.446 271.428C421.443 271.386 421.428 271.346 421.402 271.313C421.377 271.28 421.342 271.255 421.302 271.241C421.262 271.228 421.219 271.227 421.179 271.238C421.138 271.25 421.102 271.273 421.075 271.305C420.043 272.469 418.984 273.58 417.898 274.638C385.846 305.955 349.547 333.843 309.004 358.3C278.735 376.561 247.702 391.378 215.906 402.751C197.868 409.198 178.222 414.807 156.966 419.576C118.739 428.154 79.5747 433.158 39.4723 434.59C31.4179 434.881 24.0686 434.944 17.4244 434.779C14.7396 434.716 14.713 434.417 17.3445 433.884C42.2709 428.826 67.2483 424.547 92.3711 420.166C116.893 415.891 141.395 409.279 165.878 400.327C178.803 395.607 190.931 390.893 202.261 386.187C219.659 378.963 237.169 370.208 254.789 359.923C303.145 331.701 346.678 296.786 385.39 255.178C396.798 242.918 407.305 229.932 416.91 216.221C417.094 215.959 417.259 215.688 417.404 215.406C417.54 215.144 417.615 214.865 417.629 214.569C418.114 202.877 419.313 190.185 421.228 176.494C427.426 132.135 442.023 91.2815 465.018 53.9334C468.469 48.3249 471.153 44.2471 473.073 41.7C481.33 30.7328 492.322 21.4758 505.421 18.2228C536.366 10.5523 560.217 37.399 554.045 67.535C553.357 70.8827 552.466 74.2473 551.37 77.6289C547.159 90.6314 541.53 104.015 534.484 117.779C517.524 150.899 495.847 183.735 473.051 212.845C472.678 213.315 472.472 213.82 472.433 214.358C470.368 243.944 472.018 273.095 477.383 301.812C477.907 304.631 478.544 307.53 479.295 310.508C483.002 325.209 493.848 338.258 508.649 342.406C519.974 345.579 531.656 342.711 540.539 335.478C543.287 333.241 546.156 330.585 549.146 327.509C575.134 300.757 596.44 272.076 615.602 240.579C620.967 231.764 626.455 222.766 632.067 213.587C638.595 202.904 646.111 194.258 654.616 187.65C661.493 182.308 670.042 177.745 678.598 175.766C713.89 167.608 738.773 193.457 747.402 225.427C749.735 234.066 751.72 242.486 754.257 250.899C761.197 273.92 771.907 296.628 786.387 319.023C808.825 353.722 837.498 381.573 872.405 402.576C897.804 417.859 924.756 428.532 953.262 434.597C953.291 434.607 953.303 434.628 953.298 434.662V434.67C953.284 434.767 953.228 434.81 953.131 434.801C917.342 431.351 883.304 421.772 851.019 406.062C836.868 399.173 823.817 391.158 811.866 382.017C802.019 374.487 792.876 366.118 784.439 356.91C762.854 333.35 745.587 307.049 732.638 278.007C728.785 269.362 724.947 260.146 721.123 250.36C719.514 246.241 717.409 242.107 714.806 237.959C706.483 224.671 692.511 216.054 677.827 226.454C673.737 229.355 670.158 233.008 667.091 237.413C656.492 252.657 646.465 268.583 637.01 285.19C632.862 292.482 628.793 299.442 624.805 306.069C611.735 327.793 595.837 347.791 577.831 366.108C563.307 380.875 546.333 394.738 527.447 402.7C517.837 406.753 507.318 409.126 496.865 408.325C455.641 405.159 436.828 356.444 429.093 322.604C425.279 305.929 422.73 288.87 421.446 271.428Z" fill="#BA202A"/>
<path d="M510.597 472.149C510.597 469.165 511.781 466.303 513.888 464.193C515.996 462.083 518.854 460.898 521.835 460.898H610.361C620.722 460.898 630.658 464.993 637.984 472.282C645.31 479.572 649.426 489.458 649.426 499.767V499.854C649.426 510.163 645.31 520.049 637.984 527.339C630.658 534.628 620.722 538.723 610.361 538.723H521.835C518.854 538.723 515.996 537.538 513.888 535.428C511.781 533.318 510.597 530.456 510.597 527.472V472.149ZM549.03 476.384V523.368C549.03 523.551 549.102 523.727 549.232 523.857C549.361 523.986 549.537 524.059 549.72 524.059H591.475C597.951 524.059 604.162 521.511 608.741 516.976C613.32 512.441 615.893 506.29 615.893 499.876C615.893 493.462 613.32 487.311 608.741 482.776C604.162 478.241 597.951 475.693 591.475 475.693H549.72C549.537 475.693 549.361 475.766 549.232 475.895C549.102 476.025 549.03 476.201 549.03 476.384Z" fill="black"/>
<path d="M762.078 520.275C761.968 520.126 761.825 520.005 761.659 519.921C761.494 519.838 761.311 519.795 761.126 519.795H699.33C699.147 519.794 698.967 519.836 698.805 519.917C698.642 519.998 698.501 520.116 698.392 520.26C694.273 525.777 690.364 530.915 686.667 535.674C684.944 537.894 682.24 538.993 679.463 539.036C673.327 539.124 668.51 536.821 665.011 532.13C662.591 528.884 662.016 524.489 664.139 520.886C666.952 516.098 670.172 511.498 673.684 507.037C683.715 494.301 693.732 481.539 703.735 468.75C706.737 464.915 710.91 461.604 715.94 461.647C725.797 461.72 734.983 461.71 743.498 461.618C745.083 461.599 746.503 461.749 747.758 462.07C751.087 462.914 754.38 465.847 756.467 468.481C767.133 481.964 777.567 495.243 787.768 508.318C790.594 511.937 793.286 515.836 795.844 520.013C797.945 523.433 798.294 527.087 796.382 530.594C792.886 537.006 784.897 540.535 777.838 538.476C776.234 538.01 774.841 537.02 773.659 535.507C769.796 530.553 765.936 525.476 762.078 520.275ZM708.896 504.388C708.861 504.433 708.839 504.487 708.832 504.544C708.826 504.601 708.836 504.659 708.861 504.711C708.886 504.762 708.925 504.806 708.974 504.836C709.023 504.867 709.079 504.883 709.136 504.883H751.327C751.385 504.883 751.441 504.867 751.489 504.836C751.538 504.806 751.577 504.762 751.602 504.711C751.627 504.659 751.637 504.601 751.631 504.544C751.625 504.487 751.603 504.433 751.567 504.388L730.471 476.479C730.443 476.443 730.406 476.413 730.365 476.393C730.323 476.373 730.278 476.362 730.232 476.362C730.185 476.362 730.14 476.373 730.098 476.393C730.057 476.413 730.02 476.443 729.992 476.479L708.896 504.388Z" fill="black"/>
</svg>